<svg width="1336" height="768" viewBox="0 0 1336 768" fill="none" xmlns="http://www.w3.org/2000/svg">
<path d="M479.983 668.079C484.635 722.658 504.342 767.813 504.342 767.813L1335.83 768L1336 -6.84857e-05L1276 -7.01547e-05L1199.5 -7.06315e-05L1064 -6.70552e-05C1064 -6.70552e-05 957.186 -11.456 847.726 75.0963C844.306 77.7976 840.954 80.5728 837.67 83.4219C822.274 96.732 808.28 111.581 795.907 127.737C762.489 171.529 741.371 223.442 734.735 278.118C729.455 320.958 716.079 375.405 683.509 420.523C682.392 422.066 681.254 423.6 680.097 425.125C657.636 454.596 626.58 479.666 583.714 494.215C543.169 507.98 517.256 530.299 501.362 556.421C480.486 590.69 476.853 631.502 479.983 668.079Z" fill="#3B89D3"/>
<path opacity="0.4" d="M1190.58 556.012V147.014H1335.41V556.012H1190.58Z" fill="white" stroke="#212121"/>
<path opacity="0.4" d="M1020.73 237.367V556.012H852.873V237.367H1020.73Z" fill="white" stroke="#212121"/>
<path opacity="0.4" d="M735.208 278.218L735.208 278.217C741.811 223.71 762.829 171.949 796.097 128.262H851.873V556.012H684.017V420.735C716.579 375.539 729.937 321.058 735.208 278.218Z" fill="white" stroke="#212121"/>
<path opacity="0.4" d="M1189.58 60.0708V556.012H1021.73V60.0708H1189.58Z" fill="white" stroke="#212121"/>
<path opacity="0.4" d="M480.046 668.175H1335.91V556.512H501.401C480.533 590.786 476.908 631.599 480.046 668.175Z" fill="white"/>
<path d="M0 0H1050.5L1025 1.50002L1001.5 5.00002L980 9.50002L952 17.5L926 28L906.5 37.5L879 53.5L851.5 72.5L828 92.5L806.5 115L788.5 138L774.5 160.5L762 184.5L753 205L746 226L741.5 241.5L738 257.5L735.5 275L734 288L729.5 312.5L725 331L719.5 349.5L712.5 368L704.5 386L697.5 399L688 414.5L678 428.5L669.5 438.5L659 449.5L646.5 460.5L634 469.5L622.5 477L609 484L593 491L577.5 496.5L564.5 502L551.5 509L539 516.5L523.5 529L511 542.5L500.5 558L492.5 574.5L487 589L483.5 602.5L480.5 620L479.5 635L479 650L479.5 661L481.5 681L486 707L491 728L496.5 746.5L502 761.5L504.5 768H0V0Z" fill="url(#paint0_linear_1_384)"/>
<path d="M793.92 339.263L793.761 339.171L798.482 330.988C798.91 330.246 799.033 329.367 798.822 328.546C798.612 327.724 798.086 327.027 797.361 326.608L779.549 316.318C778.823 315.898 777.957 315.791 777.141 316.02C776.325 316.248 775.626 316.794 775.197 317.536L773.129 321.121L773.069 321.086C773.026 321.062 772.975 321.055 772.927 321.069C772.879 321.082 772.838 321.114 772.813 321.158L771.888 322.761C771.863 322.805 771.856 322.856 771.868 322.905C771.88 322.953 771.911 322.994 771.954 323.018L772.014 323.053L771.088 324.658L771.014 324.615C770.993 324.603 770.969 324.595 770.945 324.592C770.921 324.589 770.896 324.591 770.872 324.598C770.849 324.604 770.826 324.615 770.807 324.631C770.787 324.646 770.771 324.665 770.758 324.687L769.008 327.721C768.982 327.764 768.975 327.816 768.988 327.864C769 327.913 769.031 327.954 769.073 327.978L769.148 328.021L768.469 329.198L768.401 329.159C768.38 329.147 768.357 329.139 768.333 329.136C768.308 329.133 768.284 329.135 768.26 329.141C768.236 329.148 768.214 329.159 768.194 329.175C768.175 329.19 768.158 329.209 768.146 329.231L766.379 332.294C766.353 332.337 766.346 332.389 766.359 332.437C766.371 332.485 766.402 332.526 766.444 332.551L766.512 332.59L750.495 360.35C750.067 361.092 749.944 361.971 750.155 362.792C750.365 363.614 750.891 364.311 751.616 364.73L769.428 375.021C770.154 375.44 771.02 375.547 771.836 375.319C772.652 375.09 773.351 374.545 773.78 373.802L790.375 345.039L790.534 345.131C790.577 345.156 790.628 345.162 790.676 345.149C790.724 345.135 790.765 345.103 790.79 345.059L793.986 339.52C794.011 339.476 794.018 339.425 794.006 339.377C793.994 339.328 793.963 339.287 793.92 339.263Z" fill="#3F3D56"/>
<path d="M787.66 323.81L784.802 322.159C784.716 322.109 784.652 322.031 784.623 321.941C784.594 321.85 784.603 321.756 784.648 321.678L784.713 321.565C784.758 321.487 784.836 321.432 784.928 321.412C785.021 321.391 785.121 321.408 785.207 321.457L788.065 323.109C788.151 323.158 788.215 323.237 788.244 323.327C788.273 323.418 788.264 323.512 788.219 323.59L788.154 323.703C788.109 323.781 788.031 323.836 787.939 323.856C787.846 323.876 787.746 323.86 787.66 323.81Z" fill="white"/>
<path d="M789.036 324.605C789.229 324.717 789.477 324.651 789.589 324.457C789.7 324.263 789.634 324.015 789.44 323.903C789.247 323.792 788.999 323.858 788.887 324.052C788.776 324.245 788.842 324.493 789.036 324.605Z" fill="white"/>
<path d="M796.3 327.866L793.551 326.278L793.363 326.604C793.126 327.015 792.733 327.313 792.271 327.433C791.809 327.554 791.316 327.486 790.9 327.246L782.142 322.186C781.936 322.067 781.755 321.909 781.609 321.722C781.464 321.534 781.356 321.32 781.294 321.092C781.231 320.864 781.213 320.627 781.243 320.394C781.272 320.16 781.348 319.936 781.465 319.732L781.654 319.405L779.076 317.916C778.571 317.624 777.972 317.541 777.411 317.688C776.85 317.834 776.373 318.196 776.085 318.695L751.942 360.54C751.654 361.039 751.579 361.633 751.733 362.192C751.887 362.751 752.258 363.23 752.763 363.522L769.987 373.472C770.492 373.764 771.091 373.846 771.651 373.7C772.212 373.554 772.689 373.192 772.976 372.694L797.12 330.847C797.263 330.6 797.355 330.328 797.391 330.044C797.427 329.761 797.406 329.473 797.33 329.196C797.254 328.919 797.123 328.659 796.947 328.431C796.77 328.203 796.551 328.011 796.3 327.867L796.3 327.866Z" fill="white"/>
<path d="M767.274 365.357L760.441 361.409C759.952 361.127 759.612 360.634 759.494 360.04C759.376 359.445 759.491 358.798 759.813 358.24C760.135 357.681 760.638 357.258 761.212 357.063C761.785 356.868 762.381 356.917 762.87 357.199L769.703 361.147C770.192 361.429 770.532 361.922 770.65 362.516C770.768 363.11 770.653 363.758 770.331 364.316C770.009 364.874 769.506 365.298 768.932 365.493C768.359 365.688 767.763 365.639 767.274 365.357Z" fill="#6C63FF"/>
<path d="M779.835 351.097L766.502 343.394C766.317 343.287 766.183 343.111 766.128 342.904C766.074 342.697 766.104 342.476 766.211 342.29C766.318 342.104 766.495 341.968 766.701 341.912C766.907 341.856 767.127 341.884 767.312 341.991L780.644 349.693C780.829 349.8 780.963 349.976 781.018 350.183C781.072 350.39 781.043 350.611 780.935 350.797C780.828 350.983 780.652 351.119 780.445 351.175C780.239 351.232 780.019 351.203 779.835 351.097Z" fill="#E6E6E6"/>
<path d="M779.025 352.5L765.692 344.797C765.508 344.69 765.352 344.551 765.26 344.41C765.167 344.269 765.145 344.137 765.199 344.044C765.253 343.951 765.377 343.904 765.546 343.914C765.714 343.923 765.913 343.989 766.097 344.095L779.43 351.798C779.614 351.905 779.77 352.044 779.863 352.185C779.955 352.326 779.977 352.458 779.923 352.551C779.87 352.644 779.745 352.691 779.576 352.681C779.408 352.672 779.21 352.606 779.025 352.5Z" fill="#E6E6E6"/>
<path d="M777.406 355.306L764.073 347.604C763.888 347.497 763.754 347.321 763.7 347.114C763.645 346.907 763.675 346.686 763.782 346.5C763.889 346.314 764.066 346.178 764.272 346.122C764.478 346.065 764.698 346.094 764.883 346.2L778.215 353.903C778.4 354.01 778.534 354.186 778.589 354.393C778.643 354.6 778.614 354.821 778.506 355.007C778.399 355.193 778.223 355.329 778.016 355.385C777.81 355.441 777.59 355.413 777.406 355.306Z" fill="#E6E6E6"/>
<path d="M776.596 356.71L763.263 349.007C763.079 348.9 762.923 348.761 762.831 348.62C762.738 348.479 762.716 348.347 762.77 348.254C762.824 348.161 762.948 348.114 763.117 348.124C763.285 348.133 763.484 348.199 763.668 348.305L777.001 356.008C777.185 356.115 777.341 356.254 777.434 356.395C777.526 356.536 777.548 356.668 777.494 356.761C777.441 356.854 777.316 356.901 777.147 356.891C776.979 356.882 776.781 356.816 776.596 356.71Z" fill="#E6E6E6"/>
<path d="M766.27 353.551L762.045 351.11C761.862 351.004 761.728 350.828 761.674 350.621C761.62 350.415 761.651 350.194 761.758 350.008C761.865 349.822 762.041 349.686 762.247 349.629C762.453 349.573 762.671 349.6 762.855 349.706L767.08 352.147C767.264 352.253 767.397 352.429 767.451 352.636C767.505 352.842 767.475 353.063 767.367 353.249C767.26 353.435 767.084 353.571 766.878 353.628C766.673 353.684 766.454 353.657 766.27 353.551L766.27 353.551Z" fill="#E6E6E6"/>
<path d="M785.303 346.772L768.212 336.898C768.061 336.81 767.952 336.666 767.907 336.495C767.863 336.325 767.888 336.144 767.976 335.99L775.405 323.114C775.494 322.961 775.639 322.849 775.808 322.802C775.977 322.755 776.157 322.778 776.309 322.865L793.399 332.739C793.55 332.826 793.66 332.971 793.704 333.141C793.748 333.311 793.724 333.493 793.635 333.647L786.206 346.522C786.118 346.676 785.973 346.788 785.804 346.835C785.634 346.881 785.454 346.859 785.303 346.772Z" fill="#E6E6E6"/>
<g opacity="0.1">
<path opacity="0.1" d="M790.247 344.655C790.304 344.556 790.362 344.457 790.419 344.358C790.371 344.432 790.326 344.509 790.286 344.588C790.272 344.61 790.26 344.633 790.247 344.655Z" fill="black"/>
</g>
<path d="M640.694 254.926L635.648 280.174L659.197 297.848L670.131 265.025L640.694 254.926Z" fill="#9F616A"/>
<path d="M659.618 278.07C672.159 278.07 682.326 267.897 682.326 255.347C682.326 242.797 672.159 232.624 659.618 232.624C647.076 232.624 636.909 242.797 636.909 255.347C636.909 267.897 647.076 278.07 659.618 278.07Z" fill="#9F616A"/>
<path d="M610.417 427.518C610.52 434.849 642.429 516.44 637.999 527.065C631.015 534.208 615.993 572.23 609.575 582.373C608.735 582.372 604.529 594.996 604.529 594.996C604.529 594.996 614.622 610.987 625.555 604.254C639.303 571.898 673.734 553.852 674.342 511.681C676.004 525.002 680.909 610.513 680.909 610.513C680.909 610.513 679.968 610.913 701.15 612.943C704.439 563.314 717.878 478.879 687.791 425.834C678.541 421.626 610.417 427.518 610.417 427.518Z" fill="#2F2E41"/>
<path d="M680.908 608.848C679.925 610.741 672.873 628.206 679.29 629.957C686.69 631.977 693.864 629.147 693.864 629.147C693.864 629.147 706.818 633.198 714.746 628.049C718.446 624.347 717.605 620.981 715.839 618.541C714.942 617.338 713.793 616.347 712.473 615.635C711.153 614.923 709.694 614.508 708.197 614.419C704.174 614.132 702.896 613.386 702.436 611.541C701.763 608.848 680.908 608.848 680.908 608.848Z" fill="#2F2E41"/>
<path d="M611.706 593.597C611.706 593.597 593.629 599.309 597.435 605.973C599.906 610.104 603.515 613.434 607.829 615.565C607.829 615.565 611.599 631.117 622.064 631.117C627.297 631.117 629.081 628.142 629.557 625.167C629.772 623.682 629.66 622.168 629.23 620.73C628.8 619.293 628.061 617.967 627.066 616.845C624.424 613.795 624.048 612.364 625.025 610.733C626.452 608.353 611.706 593.597 611.706 593.597Z" fill="#2F2E41"/>
<path d="M692.001 429.981C692.001 429.981 688.633 436.714 675.177 434.186C661.721 431.666 608.738 434.186 608.738 434.186C608.738 434.186 611.677 374.014 604.949 337.824C598.221 301.633 624.712 281.014 624.712 281.014L633.124 272.596C641.537 271.762 659.3 297.882 659.3 297.882C665.146 298.862 670.603 323.727 675.258 347.254C675.533 348.599 675.792 349.928 676.052 351.256C678.197 362.226 681.185 374.436 682.974 385.397C683.103 386.175 683.225 386.945 683.338 387.714C685.465 401.949 688.357 416.058 692.001 429.981Z" fill="#E6E6E6"/>
<path d="M633.052 241.198C633.052 241.198 628.806 231.852 639.845 227.603C639.845 227.603 649.186 212.309 667.866 222.505C667.866 222.505 680.603 227.603 680.603 241.198C680.603 254.793 684.849 257.342 684.849 257.342C684.849 257.342 678.526 250.852 676.828 245.754C675.13 240.656 661.922 239.499 656.828 244.597C651.733 249.695 638.996 248.846 638.996 248.846L639.845 267.539C639.845 267.539 635.599 256.493 633.901 256.493C632.203 256.493 630.505 241.198 633.052 241.198Z" fill="#2F2E41"/>
<path opacity="0.2" d="M682.974 385.397C662.911 374.484 630.412 350.552 619.927 337.605C606.107 320.551 621.182 307.588 621.182 307.588C638.274 296.796 658.709 333.821 658.709 333.821L675.258 347.254C675.533 348.599 675.792 349.928 676.052 351.256C678.197 362.226 681.185 374.435 682.974 385.397Z" fill="black"/>
<path d="M742.866 372.821C742.866 372.821 772.693 384.938 777.602 371.317C782.511 357.696 754.053 357.93 754.053 357.93L742.881 359.514L742.866 372.821Z" fill="#9F616A"/>
<path d="M617.359 302.045C617.359 302.045 602.291 315.016 616.102 332.064C629.912 349.113 693.383 385.539 693.383 385.539L734.726 374.355L746.426 376.498L748.631 354.517L731.395 356.201L687.641 346.879L659.741 324.225C659.741 324.225 634.446 291.26 617.359 302.045Z" fill="#E6E6E6"/>
<path opacity="0.2" d="M672.252 458.295L674.888 519.934L668.204 458.295H672.252Z" fill="black"/>
<path d="M1114.41 414.203L1090.48 419.751C1088.63 420.181 1086.69 419.871 1085.06 418.887C1083.43 417.904 1082.25 416.325 1081.77 414.485C1081.49 413.419 1081.46 412.302 1081.67 411.22C1081.89 410.138 1082.34 409.119 1083 408.238C1083.67 407.357 1084.52 406.638 1085.5 406.135C1086.48 405.631 1087.56 405.356 1088.67 405.331L1111.78 404.793L1114.41 414.203Z" fill="#FFB9B9"/>
<path d="M1111.87 417.717L1106.56 401.762L1138.42 390.871L1129.97 316.346C1145.19 319.116 1152.44 331.097 1151.76 346.569L1155.88 397.422L1111.87 417.717Z" fill="#3F3D56"/>
<path d="M1133.89 299.915H1185.95V274.01C1185.97 267.013 1183.23 260.292 1178.32 255.304C1175.93 252.847 1173.07 250.895 1169.9 249.563C1166.74 248.232 1163.35 247.549 1159.92 247.554C1153.07 247.567 1146.5 250.276 1141.63 255.098C1136.76 259.919 1133.98 266.464 1133.9 273.318C1133.89 273.555 1133.89 273.78 1133.89 274.01L1133.89 299.915Z" fill="#2F2E41"/>
<path d="M1207.71 604.344L1191.07 602.433L1171.16 467.852L1129.97 602.979L1111.96 603.525L1132.42 437.278L1129.42 399.333L1180.43 383.227C1216.57 408.467 1215.82 497.614 1207.71 604.344Z" fill="#2F2E41"/>
<path d="M1155.34 294.78C1166.18 294.78 1174.98 285.98 1174.98 275.125C1174.98 264.27 1166.18 255.47 1155.34 255.47C1144.49 255.47 1135.69 264.27 1135.69 275.125C1135.69 285.98 1144.49 294.78 1155.34 294.78Z" fill="#FFB9B9"/>
<path d="M1174.98 310.613L1141.7 319.349C1147.3 308.558 1149.1 298.485 1146.06 289.321L1169.52 285.499C1168.01 294.262 1169.97 303.268 1174.98 310.613Z" fill="#FFB9B9"/>
<path d="M1186.16 390.598C1167.5 402.477 1145.75 416.124 1129.69 402.882L1122.05 365.756C1115.98 360.345 1118.68 343.648 1126.88 319.848C1127.4 318.337 1128.26 316.965 1129.39 315.836C1130.52 314.706 1131.89 313.849 1133.4 313.329L1146.06 308.975C1151.67 313.696 1160.86 310.88 1171.7 304.608L1184.25 307.883L1189.71 348.831C1181.83 360.639 1183.21 376.362 1186.16 390.598Z" fill="#3F3D56"/>
<path d="M1170.61 406.559L1146.68 412.108C1144.83 412.537 1142.88 412.227 1141.26 411.244C1139.63 410.261 1138.45 408.681 1137.97 406.842C1137.69 405.775 1137.66 404.659 1137.87 403.577C1138.08 402.495 1138.54 401.475 1139.2 400.595C1139.86 399.714 1140.72 398.995 1141.7 398.491C1142.68 397.988 1143.76 397.713 1144.86 397.687L1167.98 397.149L1170.61 406.559Z" fill="#FFB9B9"/>
<path d="M1204.82 630.074C1202.03 631.351 1199.69 623.44 1197.33 625.758C1190.73 632.243 1174.91 630.789 1174.91 630.789C1174.38 630.618 1173.89 630.341 1173.47 629.975C1173.05 629.609 1172.71 629.161 1172.47 628.658C1172.22 628.156 1172.08 627.609 1172.06 627.051C1172.03 626.494 1172.12 625.936 1172.32 625.414C1172.55 624.788 1172.93 624.229 1173.43 623.784C1173.93 623.339 1174.53 623.022 1175.18 622.86L1182.19 621.106L1193.2 601.728L1205.2 600.208L1205.5 600.704C1207.82 604.446 1209.32 608.639 1209.89 613.005C1210.46 617.371 1210.1 621.809 1208.82 626.022C1207.82 629.222 1206.46 629.324 1204.82 630.074Z" fill="#2F2E41"/>
<path d="M1125.71 630.074C1122.91 631.351 1120.57 623.44 1118.22 625.758C1111.62 632.243 1095.8 630.789 1095.8 630.789C1095.27 630.618 1094.78 630.341 1094.36 629.975C1093.94 629.609 1093.6 629.161 1093.35 628.658C1093.11 628.156 1092.97 627.609 1092.95 627.051C1092.92 626.494 1093.01 625.936 1093.2 625.414C1093.44 624.788 1093.82 624.229 1094.32 623.784C1094.82 623.339 1095.42 623.022 1096.06 622.86L1103.08 621.106L1114.09 601.728L1126.09 600.208L1126.39 600.704C1128.71 604.446 1130.21 608.639 1130.78 613.005C1131.35 617.371 1130.99 621.809 1129.71 626.022C1128.71 629.222 1127.35 629.324 1125.71 630.074Z" fill="#2F2E41"/>
<path d="M1178.36 258.731L1173.42 274.481L1130.65 273.72C1130.79 268.21 1132.65 262.883 1135.97 258.483C1139.29 254.084 1143.9 250.831 1149.16 249.18C1154.41 247.529 1160.05 247.562 1165.29 249.275C1170.52 250.987 1175.1 254.293 1178.36 258.731H1178.36Z" fill="#2F2E41"/>
<path d="M1168.07 410.074L1162.76 394.118L1194.62 383.227L1182.57 307.087C1189.93 308.427 1196.56 312.39 1201.23 318.243C1205.89 324.097 1208.29 331.444 1207.96 338.925L1212.08 389.779L1168.07 410.074Z" fill="#3F3D56"/>
<path d="M1066.22 380.233L1065.89 380.388L1077.19 403.864L1077.52 403.709L1066.22 380.233Z" fill="#CCCCCC"/>
<path d="M1225.19 629.759H596.908V631.38H1225.19V629.759Z" fill="#3F3D56"/>
<path d="M1169.78 394.93L1170.12 397.376L1147.36 405.956L1144.99 405.753L1144.59 405.719L1126.44 399.11L1169.78 394.93Z" fill="#9493B6"/>
<path opacity="0.1" d="M1169.74 394.692L1170.1 397.213L1147.46 405.942L1145.1 405.721L1144.36 403.163L1169.74 394.692Z" fill="black"/>
<path d="M1143.32 402.721C1143.7 402.432 1151.96 399.379 1151.96 399.379L1136.31 399.902L1143.32 402.721Z" fill="#47465A"/>
<path d="M1061.51 376.161L1121.82 368.328C1122.24 368.274 1122.66 368.341 1123.04 368.522C1123.43 368.703 1123.75 368.99 1123.97 369.349L1145.22 403.058C1145.43 403.38 1145.54 403.748 1145.57 404.129C1145.59 404.509 1145.52 404.889 1145.35 405.232C1145.19 405.575 1144.94 405.869 1144.63 406.088C1144.33 406.307 1143.97 406.442 1143.59 406.481L1082.85 412.804C1082.45 412.847 1082.04 412.775 1081.67 412.598C1081.3 412.421 1080.99 412.144 1080.77 411.8L1059.95 379.599C1059.74 379.282 1059.62 378.917 1059.59 378.54C1059.56 378.162 1059.63 377.784 1059.79 377.441C1059.94 377.097 1060.18 376.799 1060.48 376.576C1060.78 376.352 1061.14 376.209 1061.51 376.161Z" fill="#7A799C"/>
<path d="M1005.73 511.513C1005.63 509.76 1004.92 508.099 1003.71 506.824C1002.5 505.549 1000.88 504.743 999.139 504.549L891.831 492.433C890.802 492.315 889.759 492.415 888.771 492.724L864.155 500.436L850.031 504.866L823.965 513.031C822.392 513.525 821.027 514.529 820.085 515.883C819.142 517.238 818.676 518.867 818.759 520.515L823.159 625.17C823.252 626.871 823.923 628.489 825.06 629.757C826.196 631.025 827.731 631.867 829.411 632.145L938.977 632.384C939.491 632.468 940.013 632.495 940.534 632.467C941.292 632.43 942.041 632.277 942.753 632.013L1006.96 631.569C1008.45 631.018 1009.73 629.999 1010.6 628.663C1011.48 627.327 1011.89 625.745 1011.8 624.153L1005.73 511.513Z" fill="white"/>
<path d="M826.307 629.955L942.733 630.2C942.903 630.228 943.078 630.212 943.24 630.154L1011.46 629.699C1011.66 629.629 1011.83 629.497 1011.94 629.324C1012.06 629.151 1012.12 628.945 1012.1 628.739L1005.67 512.361C1005.65 512.136 1005.55 511.923 1005.39 511.759C1005.23 511.595 1005.02 511.49 1004.79 511.462L1004.02 511.374L890.759 498.953C890.708 498.946 890.655 498.945 890.603 498.949C890.518 498.951 890.433 498.964 890.351 498.988L826.552 518.426L821.488 519.965C821.281 520.031 821.102 520.16 820.977 520.335C820.853 520.509 820.791 520.718 820.8 520.93L825.477 629.051C825.489 629.271 825.577 629.481 825.728 629.646C825.879 629.81 826.083 629.919 826.307 629.955Z" fill="#39D552"/>
<path d="M830.364 516.754L890.54 496.937C890.617 496.913 890.697 496.9 890.777 496.898C890.826 496.894 890.876 496.895 890.925 496.902L997.755 509.565L972.026 518.369L962.397 521.658L934.997 531.028C934.915 531.051 934.833 531.068 934.75 531.08C934.697 531.075 934.644 531.07 934.581 531.067L830.364 516.754Z" fill="#555555"/>
<path d="M829.41 632.151L938.975 632.388C939.491 632.47 940.014 632.495 940.535 632.461C941.294 632.426 942.043 632.277 942.758 632.018L1006.95 631.577C1008.45 631.024 1009.73 630.003 1010.6 628.667C1011.47 627.33 1011.89 625.748 1011.8 624.155L1005.73 511.513C1005.65 510.194 1005.23 508.918 1004.5 507.816C1004.4 507.67 1004.3 507.525 1004.19 507.39C1003.44 506.403 1002.44 505.625 1001.3 505.131C1000.61 504.829 999.885 504.633 999.139 504.55L999.012 504.533L891.836 492.431C891.399 492.387 890.96 492.375 890.522 492.393C889.926 492.434 889.337 492.547 888.768 492.73L864.154 500.433L850.033 504.87L823.963 513.034C822.896 513.366 821.919 513.937 821.104 514.703C821.039 514.753 820.979 514.809 820.924 514.87C820.884 514.91 820.847 514.953 820.813 514.998C820.115 515.729 819.573 516.595 819.22 517.542C818.867 518.489 818.711 519.498 818.76 520.508L823.153 625.17C823.247 626.872 823.918 628.492 825.056 629.761C826.193 631.03 827.729 631.873 829.41 632.151ZM820.616 520.421C820.565 519.374 820.813 518.335 821.331 517.424C821.485 517.134 821.668 516.86 821.877 516.607C822.446 515.905 823.178 515.353 824.009 515C824.173 514.928 824.341 514.867 824.512 514.816L868.408 501.068L889.327 494.501C889.468 494.453 889.602 494.427 889.734 494.391C890.055 494.316 890.384 494.271 890.714 494.258C891.015 494.234 891.318 494.242 891.618 494.281L998.921 506.4C999.006 506.411 999.081 506.423 999.166 506.435C1000.15 506.58 1001.07 506.993 1001.84 507.628C1002.44 508.111 1002.93 508.715 1003.28 509.402C1003.63 510.088 1003.84 510.84 1003.88 511.61L1009.93 624.263C1010.01 625.456 1009.69 626.641 1009.04 627.642C1008.39 628.644 1007.43 629.409 1006.31 629.826L942.107 630.268C941.2 630.601 940.222 630.695 939.267 630.54L829.703 630.314C828.445 630.102 827.296 629.47 826.445 628.519C825.594 627.569 825.091 626.357 825.018 625.083L820.616 520.421Z" fill="#3B89D3"/>
<path d="M940.867 632.668C940.622 632.68 940.382 632.595 940.199 632.431C940.016 632.268 939.906 632.038 939.891 631.793L933.852 530.482C933.838 530.236 933.922 529.993 934.085 529.809C934.249 529.624 934.48 529.512 934.726 529.497L934.734 529.497C934.979 529.484 935.219 529.569 935.402 529.733C935.585 529.897 935.696 530.126 935.71 530.371L941.749 631.682C941.763 631.929 941.679 632.171 941.516 632.356C941.352 632.54 941.121 632.653 940.875 632.667L940.867 632.668Z" fill="#3B89D3"/>
<path d="M978.746 625.815L968.234 625.743L958.259 521.809C958.259 521.809 970.886 516.64 971.44 517.52C971.777 518.044 978.708 625.17 978.746 625.815Z" fill="#3B89D3"/>
<path d="M1002.38 508.515L1001.63 507.893C1000.84 507.25 999.892 506.849 998.887 506.739L891.584 494.621C890.992 494.555 890.394 494.589 889.813 494.719L889.411 494.818L889.33 493.212L907.125 473.513C908.185 472.346 909.499 471.438 910.967 470.862C912.434 470.286 914.015 470.057 915.585 470.192L988.125 476.615C990.292 476.799 992.343 477.676 993.974 479.114C995.606 480.553 996.733 482.479 997.188 484.607L1002.38 508.515Z" fill="#3B89D3"/>
<path d="M840.2 587.781C840.315 587.762 840.431 587.756 840.547 587.763L873.572 589.766C873.985 589.791 874.372 589.98 874.647 590.29C874.921 590.6 875.062 591.007 875.037 591.42C875.012 591.834 874.824 592.221 874.514 592.496C874.204 592.771 873.797 592.911 873.384 592.886L840.358 590.883C839.975 590.86 839.613 590.696 839.343 590.423C839.073 590.15 838.913 589.787 838.893 589.403C838.873 589.019 838.996 588.641 839.237 588.342C839.478 588.043 839.821 587.843 840.2 587.781Z" fill="#3B89D3"/>
<path d="M840.753 599.39C840.868 599.372 840.984 599.366 841.1 599.373L874.125 601.376C874.539 601.401 874.925 601.589 875.2 601.899C875.475 602.209 875.615 602.616 875.59 603.03C875.565 603.444 875.377 603.83 875.067 604.105C874.757 604.38 874.35 604.521 873.937 604.496L840.912 602.493C840.528 602.469 840.167 602.305 839.896 602.032C839.626 601.759 839.466 601.396 839.446 601.012C839.427 600.628 839.549 600.251 839.79 599.951C840.032 599.652 840.374 599.452 840.753 599.39Z" fill="#3B89D3"/>
<path d="M1003.13 509.129C1003.06 509.178 1002.98 509.217 1002.89 509.246L999.497 510.346L972.018 519.296L962.411 522.413L962.056 522.53L961.305 522.776L945.973 527.767L940.131 529.667L935.069 531.315C934.993 531.335 934.911 531.349 934.829 531.363C934.775 531.356 934.72 531.356 934.659 531.349L921.793 529.667L906.305 527.644L899.063 526.7L883.212 524.622L868.003 522.639L867.627 522.591L867.251 522.536L821.878 516.609L821.496 516.554C821.407 516.546 821.321 516.52 821.243 516.479C821.06 516.397 820.908 516.258 820.81 516.084C820.712 515.909 820.672 515.707 820.696 515.508C820.714 515.341 820.778 515.183 820.881 515.05C820.922 515.009 820.956 514.968 820.997 514.934C821.031 514.913 821.072 514.872 821.113 514.852C821.297 514.725 821.521 514.672 821.742 514.701L824.01 515.002L867.251 520.656L867.627 520.704L868.003 520.752L890.406 523.685L898.741 524.772L920.68 527.643L934.693 529.476L940.33 527.643L958.257 521.812L961.305 520.82L961.68 520.697L962.056 520.574L971.437 517.525L999.34 508.439L1001.84 507.625L1002.33 507.468C1002.53 507.402 1002.76 507.412 1002.96 507.496C1003.16 507.579 1003.33 507.732 1003.43 507.926C1003.46 507.972 1003.48 508.02 1003.49 508.07C1003.56 508.262 1003.55 508.469 1003.49 508.659C1003.42 508.85 1003.3 509.015 1003.13 509.129Z" fill="#3B89D3"/>
<path d="M908.783 573.423C908.184 573.423 907.584 573.377 906.992 573.285L838.392 562.564C836.037 562.188 833.851 561.106 832.124 559.459C830.397 557.813 829.211 555.68 828.722 553.344L821.066 516.158L821.538 516.216L936.216 530.088L919.449 566.595C918.505 568.632 917.001 570.356 915.111 571.566C913.222 572.776 911.026 573.42 908.783 573.423Z" fill="#3B89D3"/>
<defs>
<linearGradient id="paint0_linear_1_384" x1="1050.5" y1="768" x2="607.925" y2="-261.375" gradientUnits="userSpaceOnUse">
<stop stop-color="#3B89D3"/>
<stop offset="1" stop-color="#C1FFDA"/>
</linearGradient>
</defs>
</svg>
