<svg width="1030" height="1099" viewBox="0 0 1030 1099" fill="none" xmlns="http://www.w3.org/2000/svg">
<g filter="url(#filter0_d_5_5)">
<path fill-rule="evenodd" clip-rule="evenodd" d="M289.386 298.756C289.39 298.756 289.394 298.754 289.396 298.751C306.121 282.039 316.472 258.948 316.472 233.439C316.472 207.941 306.119 184.848 289.392 168.123C272.665 151.411 249.552 141.067 224.018 141.067C198.485 141.067 175.384 151.411 158.645 168.123C141.918 184.835 131.565 207.929 131.565 233.439C131.565 258.95 141.918 282.031 158.645 298.756C166.051 306.155 174.702 312.305 184.26 316.862C193.408 321.225 200.579 329.461 201.853 339.516C224.234 516.201 357.444 565.05 444.562 592.186C486.61 605.297 545.41 649.015 550.063 683.586C574.894 868.097 728.446 927.842 814.102 946.913C824.177 949.156 831.699 957.361 835.043 967.126C839.658 980.601 847.308 992.671 857.173 1002.53C873.9 1019.24 897.013 1029.58 922.546 1029.58C948.067 1029.58 971.181 1019.24 987.92 1002.53C1004.65 985.816 1015 962.722 1015 937.212C1015 911.713 1004.65 888.62 987.92 871.895C971.193 855.183 948.08 844.839 922.546 844.839C897.013 844.839 873.912 855.183 857.173 871.895C855.619 873.448 854.12 875.055 852.68 876.715C845.459 885.032 834.414 890.022 823.898 886.748C724.577 855.819 668.195 805.534 642.504 753.314C566.503 598.804 696.115 602.081 738.425 588.36C978.017 510.709 987.302 250.255 987.657 227.905C987.675 226.766 987.761 225.744 987.907 224.614C1000.45 127.708 916.74 159.887 888.756 166.453C666.053 218.684 577.924 358.361 543.804 446.69C535.235 468.873 499.266 472.599 491.815 450.016C426.051 250.679 545.422 126.937 593.572 86.8412C603.695 78.4118 618.295 81.3715 624.987 92.7182C645.665 127.784 660.246 162.414 669.247 186.715C675.136 202.615 695.101 209.125 708.623 198.896L710.861 197.203C719.415 190.732 722.641 179.303 718.598 169.368C679.026 72.1281 646.907 33.9276 631.565 19.9294C625.862 14.7256 617.569 14.779 610.88 18.6343C379.078 152.235 411.259 376.018 438.819 473.003C444.329 492.39 426.199 512.174 407.42 504.853C310.397 467.024 273.56 405.843 259.854 338.907C257.595 327.878 264.29 317.366 273.774 311.301C279.424 307.688 284.653 303.477 289.375 298.76C289.378 298.757 289.382 298.756 289.386 298.756ZM894.918 904.011C902.414 897.78 912.044 894.029 922.559 894.029C934.496 894.029 945.311 898.864 953.131 906.678C960.952 914.492 965.792 925.285 965.792 937.224C965.792 949.151 960.952 959.956 953.131 967.77C945.311 975.584 934.508 980.419 922.559 980.419C910.622 980.419 899.807 975.584 891.986 967.77C888.319 964.106 885.313 959.781 883.143 954.996C880.698 949.575 879.326 943.555 879.326 937.224C879.326 925.297 884.165 914.492 891.986 906.678C892.922 905.744 893.895 904.859 894.918 904.011ZM610.591 484.391C610.589 484.393 610.586 484.391 610.587 484.389C637.842 401.888 689.859 281.444 858.345 240.418C883.991 234.175 953.406 190.12 898.136 338.162C869.833 413.934 828.409 493.296 648.766 544.492C631.64 549.377 582.073 570.674 610.594 484.394C610.595 484.392 610.592 484.39 610.591 484.391ZM267.258 233.439C267.254 233.439 267.251 233.442 267.251 233.446C267.25 245.37 262.41 256.172 254.591 263.985C253.867 264.708 253.119 265.406 252.358 266.066C244.774 272.647 234.87 276.635 224.031 276.635C214.663 276.635 206.007 273.656 198.922 268.609C196.976 267.213 195.155 265.668 193.458 263.985C185.637 256.171 180.798 245.378 180.798 233.439C180.798 221.513 185.637 210.708 193.458 202.894C201.279 195.08 212.081 190.244 224.031 190.244C235.968 190.244 246.782 195.08 254.603 202.894C262.423 210.706 267.262 221.496 267.264 233.433C267.264 233.437 267.261 233.439 267.258 233.439Z" fill="#39D552"/>
<path fill-rule="evenodd" clip-rule="evenodd" d="M820.9 297.603C820.9 297.599 820.897 297.597 820.894 297.598C716.832 322.936 684.702 397.335 667.863 448.294C650.25 501.596 680.86 488.435 691.438 485.42C802.402 453.79 827.985 404.774 845.473 357.977C879.609 266.551 836.752 293.739 820.906 297.608C820.903 297.608 820.9 297.606 820.9 297.603Z" fill="white"/>
<path fill-rule="evenodd" clip-rule="evenodd" d="M523.887 425.337C523.884 425.337 523.88 425.34 523.881 425.337C523.91 425.218 549.19 320.576 624.527 256.094C631.394 250.217 635.085 241.254 633.062 232.445C632.629 230.559 632.166 228.606 631.673 226.584C631.617 226.352 631.565 226.151 631.5 225.921C630.595 222.75 622.756 196.042 606.919 166.051C600.146 153.227 583.527 151.226 574.2 162.331C541.573 201.179 481.817 294.962 523.891 425.331C523.892 425.334 523.89 425.337 523.887 425.337Z" fill="white"/>
<path fill-rule="evenodd" clip-rule="evenodd" d="M517.395 892.733C517.398 892.733 517.399 892.737 517.396 892.738C457.825 921.908 387.417 924.423 325.889 899.126C311.832 893.343 299.421 886.738 287.708 879.024C281.596 874.999 275.397 870.898 270.432 866.736L259.957 858.071C259.067 857.335 258.231 856.535 257.456 855.679L227.523 822.594C219.441 811.041 212.256 800.871 205.296 786.564C176.058 726.495 173.526 657.241 198.884 595.239C204.668 581.097 213.242 565.232 222.764 551.282C229.759 541.035 229.419 527.098 221.522 517.529C203.588 495.799 189.222 472.131 178.076 446.867C177.755 446.141 176.81 445.954 176.257 446.524C174.367 448.413 171.396 451.936 168.419 455.291C163.686 460.624 156.502 461.766 149.777 459.395L110.065 445.399C100.68 442.091 90.575 445.21 85.7875 453.933C84.1429 456.93 82.6102 459.781 81.3839 461.903C78.2827 467.292 61.969 495.995 51.5578 513.7C46.5136 522.278 47.0355 532.756 54.7061 539.095C55.2464 539.542 55.7458 539.975 56.1875 540.392L90.1777 569.492C94.2742 572.785 95.3816 578.127 93.809 583.143C92.4415 587.504 91.0315 591.977 89.816 596.473C84.7393 615.179 87.5957 618.706 80.0867 620.302L34.6742 628.623C23.2776 630.711 15 640.644 15 652.23V713.864C15 726.05 24.1059 736.505 36.082 738.758C49.8253 741.344 65.8419 744.622 76.0079 746.472C88.4689 748.741 82.9182 745.837 89.9906 771.622C90.6808 774.15 91.5341 776.827 92.4072 779.523C95.1264 787.919 92.2234 796.82 85.4814 802.516L54.8162 828.421C47.6099 834.508 45.6114 843.87 50.2663 852.075C60.391 869.921 77.827 899.328 81.3964 905.544C82.2238 906.985 83.083 908.453 83.9591 909.94C90.0054 920.203 102.609 924.994 113.843 921.037L145.917 909.739C155.021 906.532 165.075 909.171 171.681 916.209C173.463 918.106 175.251 919.963 177.043 921.746C178.898 923.587 182.561 926.667 186.009 929.735C191.226 934.378 192.321 941.385 189.997 947.971L176.974 984.877C173.164 995.674 177.511 1007.66 187.357 1013.5L192.448 1016.52C197.069 1019.19 231.261 1039.29 249.005 1049.29C255.526 1052.97 262.63 1051.84 267.458 1046.12C271.234 1041.65 275.27 1036.71 277.293 1034.42L288.868 1021.26C290.929 1018.97 294.395 1014.41 297.874 1010.16C302.528 1004.48 309.942 1002.76 316.941 1005C320.512 1006.14 324.155 1007.3 327.773 1008.26C329.93 1008.83 335.498 1009.93 340.593 1011.12C346.855 1012.57 350.834 1017.6 352.003 1023.92L359.341 1063.6C361.446 1074.98 371.37 1083.24 382.941 1083.24H445.95C457.521 1083.24 467.444 1074.98 469.55 1063.6L477.633 1019.91C478.3 1016.31 480.874 1013.35 484.353 1012.19C486.498 1011.77 488.207 1011.4 490.265 1010.92C498.034 1009.12 508.425 1005.81 516.09 1003.56C520.933 1002.14 526.447 1003.78 529.432 1007.85L552.071 1034.74C554.516 1037.3 556.075 1038.93 558.171 1041.42L559.31 1042.81C565.335 1050.16 574.743 1052.26 583.01 1047.56C594.92 1040.81 610.627 1031.54 614.202 1029.38C621.561 1024.96 628.883 1020.87 636.429 1016.49C637.899 1015.63 639.41 1014.74 640.948 1013.84C651.112 1007.86 655.823 995.465 651.919 984.34L638.475 946.023C635.918 939.006 633.735 938.209 638.35 933.822C640.808 931.495 640.598 927.472 637.858 925.486C616.692 910.152 597.382 892.748 580.274 873.283C573.524 865.604 561.807 864.631 553.443 870.512C540.711 879.47 532.056 885.551 517.394 892.727C517.391 892.729 517.392 892.733 517.395 892.733Z" fill="#3B89D3"/>
</g>
<defs>
<filter id="filter0_d_5_5" x="0" y="-2.48413" width="1030" height="1100.72" filterUnits="userSpaceOnUse" color-interpolation-filters="sRGB">
<feFlood flood-opacity="0" result="BackgroundImageFix"/>
<feColorMatrix in="SourceAlpha" type="matrix" values="0 0 0 0 0 0 0 0 0 0 0 0 0 0 0 0 0 0 127 0" result="hardAlpha"/>
<feOffset/>
<feGaussianBlur stdDeviation="7.5"/>
<feComposite in2="hardAlpha" operator="out"/>
<feColorMatrix type="matrix" values="0 0 0 0 0 0 0 0 0 0 0 0 0 0 0 0 0 0 0.25 0"/>
<feBlend mode="normal" in2="BackgroundImageFix" result="effect1_dropShadow_5_5"/>
<feBlend mode="normal" in="SourceGraphic" in2="effect1_dropShadow_5_5" result="shape"/>
</filter>
</defs>
</svg>
